<?xml version="1.0" encoding="UTF-8"?>
<svg id="Capa_1" data-name="Capa 1" xmlns="http://www.w3.org/2000/svg" xmlns:xlink="http://www.w3.org/1999/xlink" viewBox="0 0 913.83 161.48">
  <defs>
    <style>
      .cls-1 {
        isolation: isolate;
      }

      .cls-2 {
        fill: #979aa4;
      }

      .cls-3 {
        fill: #fff;
      }

      .cls-4 {
        fill: #353949;
      }

      .cls-5 {
        fill: url(#Degradado_sin_nombre);
      }
    </style>
    <linearGradient id="Degradado_sin_nombre" data-name="Degradado sin nombre" x1="115.92" y1="664.79" x2="68.95" y2="771.65" gradientTransform="translate(0 -639.37)" gradientUnits="userSpaceOnUse">
      <stop offset="0" stop-color="#f29027"/>
      <stop offset=".24" stop-color="#ec8027"/>
      <stop offset=".69" stop-color="#dd5727"/>
      <stop offset="1" stop-color="#d13827"/>
    </linearGradient>
  </defs>
  <rect class="cls-3" width="913.83" height="161.48" rx="22.34" ry="22.34"/>
  <g>
    <g>
      <path class="cls-5" d="M127.49,126.31H55.72c-5.35,0-9.68-4.33-9.68-9.68V44.86c0-5.35,4.33-9.68,9.68-9.68h71.77c5.35,0,9.68,4.33,9.68,9.68v71.77c0,5.29-4.38,9.68-9.68,9.68h0Z"/>
      <g>
        <path class="cls-3" d="M120.38,88.8l3.53,4.5c-9.22,7.63-19.58,11.55-32.27,11.55s-23.11-3.93-32.27-11.55l3.53-4.5c9.1,6.49,16.56,9.45,28.74,9.45s19.64-2.96,28.74-9.45"/>
        <path class="cls-3" d="M76.27,61.19h10.13v9.68h-9.28c-5.81,0-9.62-1.42-12.12-7.06l3.87-2.22c1.76,3.59,3.87,4.44,7.46,4.44v-4.84h-.06Z"/>
        <rect class="cls-3" x="100.17" y="61.19" width="10.13" height="9.68"/>
      </g>
    </g>
    <g>
      <path class="cls-4" d="M182.93,67.22c2.16,0,4.15.69,5.86,1.99,1.71,1.37,2.9,3.19,3.64,5.52l10.92-2.96c-1.02-4.55-3.36-8.14-7-10.87-3.64-2.68-8.08-4.04-13.26-4.04-4.55,0-8.48,1.02-11.9,3.13-3.42,2.05-6.04,4.9-7.91,8.54-1.88,3.64-2.79,7.74-2.79,12.3s.91,8.65,2.73,12.3,4.44,6.49,7.79,8.59c3.36,2.05,7.34,3.13,11.95,3.13,5.24,0,9.56-1.25,13.09-3.82,3.53-2.56,5.97-6.2,7.28-10.99l-11.16-2.44c-.8,2.33-1.88,4.1-3.3,5.24s-3.42,1.71-5.92,1.71c-3.47,0-6.15-1.25-8.03-3.75-1.88-2.51-2.79-5.81-2.79-9.96s.91-7.4,2.73-9.9c1.71-2.44,4.44-3.7,8.03-3.7h.01Z"/>
      <path class="cls-4" d="M238.54,60c-3.53-2.05-7.51-3.07-11.95-3.07s-8.31,1.02-11.78,3.02c-3.47,1.99-6.2,4.84-8.14,8.48-1.93,3.64-2.9,7.79-2.9,12.47s.97,8.77,2.84,12.41c1.88,3.59,4.61,6.43,8.08,8.48,3.47,2.05,7.4,3.07,11.84,3.07s8.48-1.02,11.95-3.02,6.2-4.84,8.14-8.48,2.9-7.79,2.9-12.47-.97-8.77-2.84-12.41c-1.93-3.59-4.66-6.43-8.14-8.48ZM235.01,90.84c-1.93,2.51-4.73,3.75-8.42,3.75s-6.43-1.2-8.31-3.64c-1.88-2.44-2.84-5.81-2.84-10.01s.91-7.51,2.79-10.01c1.82-2.44,4.66-3.7,8.42-3.7s6.49,1.2,8.42,3.64,2.9,5.81,2.9,10.01c-.06,4.15-1.02,7.46-2.96,9.96h0Z"/>
      <path class="cls-4" d="M304.44,57.1c-3.02,0-5.81.69-8.25,1.99-2.33,1.25-4.15,2.96-5.57,5.12-.51-.91-1.08-1.71-1.71-2.51-2.62-3.13-6.43-4.66-11.5-4.66-3.07,0-5.86.69-8.42,2.05-1.93,1.08-3.59,2.39-4.9,4.1v-5.06h-9.68v45.37h10.99v-27.55c0-2.68.74-4.9,2.28-6.55s3.47-2.51,5.86-2.51,4.55.85,6.04,2.56,2.22,4.1,2.22,7.12v27.09h10.92v-27.72c0-2.73.74-4.95,2.28-6.6s3.47-2.51,5.86-2.51,4.5.85,6.04,2.56c1.48,1.71,2.22,4.1,2.22,7.12l-.06,27.09h10.99v-29.94c0-5.12-1.37-9.1-4.1-12.12-2.62-2.96-6.49-4.44-11.5-4.44h0Z"/>
      <path class="cls-4" d="M359.65,60c-3.24-2.05-6.95-3.07-11.21-3.07s-7.79,1.02-10.76,3.13c-.46.29-.85.62-1.25.97v-2.84h-9.68v65.57h10.99v-22.02l.06.06c3.07,2.05,6.77,3.13,11.16,3.13,4.1,0,7.74-1.02,10.87-3.13,3.19-2.05,5.64-4.95,7.34-8.59,1.76-3.64,2.62-7.74,2.62-12.3s-.91-8.7-2.68-12.35c-1.76-3.64-4.27-6.49-7.46-8.54h0ZM355.38,91.13c-1.82,2.62-4.61,3.93-8.25,3.93s-6.43-1.25-8.14-3.75c-1.76-2.51-2.62-5.97-2.62-10.47s.85-7.91,2.56-10.41c1.71-2.51,4.33-3.75,7.86-3.75s6.49,1.31,8.42,3.98c1.93,2.68,2.9,6.09,2.9,10.19.06,4.27-.85,7.68-2.73,10.3h0Z"/>
      <path class="cls-4" d="M394.77,58.35c-2.05.34-3.87,1.08-5.52,2.16-1.42.8-2.56,1.82-3.53,3.07-.46.62-.85,1.25-1.25,1.93v-7.28h-9.68v45.37h11.04v-23.11c0-2.68.51-4.95,1.53-6.83s2.56-3.3,4.55-4.33c1.42-.69,2.9-1.08,4.55-1.2,1.65-.11,3.13,0,4.5.4v-10.25c-2.05-.34-4.15-.34-6.2.06h0Z"/>
      <path class="cls-4" d="M436.2,60c-3.53-2.05-7.51-3.07-11.95-3.07s-8.31,1.02-11.78,3.02c-3.47,1.99-6.2,4.84-8.14,8.48-1.93,3.64-2.9,7.79-2.9,12.47s.97,8.77,2.84,12.41c1.88,3.59,4.61,6.43,8.08,8.48,3.47,2.05,7.4,3.07,11.84,3.07s8.48-1.02,11.95-3.02c3.47-1.99,6.2-4.84,8.14-8.48s2.9-7.79,2.9-12.47-.97-8.77-2.84-12.41c-1.93-3.59-4.61-6.43-8.14-8.48ZM432.67,90.84c-1.93,2.51-4.73,3.75-8.42,3.75s-6.43-1.2-8.31-3.64-2.84-5.81-2.84-10.01.91-7.51,2.79-10.01c1.82-2.44,4.66-3.7,8.42-3.7s6.49,1.2,8.42,3.64,2.9,5.81,2.9,10.01c-.06,4.15-1.02,7.46-2.96,9.96h0Z"/>
      <path class="cls-4" d="M502.17,57.1c-3.02,0-5.81.69-8.25,1.99-2.33,1.25-4.15,2.96-5.57,5.12-.51-.91-1.08-1.71-1.71-2.51-2.62-3.13-6.43-4.66-11.5-4.66-3.07,0-5.86.69-8.42,2.05-1.93,1.08-3.59,2.39-4.9,4.1v-5.06h-9.68v45.37h10.99v-27.55c0-2.68.74-4.9,2.28-6.55s3.47-2.51,5.86-2.51,4.55.85,6.04,2.56c1.48,1.71,2.22,4.1,2.22,7.12v27.09h10.92v-27.72c0-2.73.74-4.95,2.28-6.6s3.47-2.51,5.86-2.51,4.5.85,6.04,2.56c1.48,1.71,2.22,4.1,2.22,7.12l-.06,27.09h10.99v-29.94c0-5.12-1.37-9.1-4.1-12.12-2.68-2.96-6.55-4.44-11.5-4.44h0Z"/>
      <polygon class="cls-4" points="541.04 36.66 517.77 44.86 520.55 52.77 543.78 44.69 541.04 36.66"/>
      <rect class="cls-4" x="525.34" y="58.23" width="10.92" height="45.37"/>
      <path class="cls-4" d="M579.81,83.9c-.97-1.71-2.51-3.13-4.55-4.27-2.11-1.2-4.9-2.22-8.42-3.13-3.7-.97-6.37-1.71-8.03-2.22-1.65-.51-2.79-1.08-3.36-1.6s-.91-1.25-.91-2.16c0-1.42.69-2.44,1.99-3.19,1.37-.74,3.13-1.02,5.41-.91,2.22.11,4.04.69,5.41,1.71s2.11,2.44,2.33,4.27l11.16-1.99c-.34-2.73-1.37-5.12-3.02-7.17-1.71-1.99-3.93-3.59-6.66-4.66-2.79-1.08-5.92-1.65-9.45-1.65s-6.83.57-9.5,1.76-4.78,2.79-6.26,4.9-2.22,4.61-2.22,7.51c0,2.28.51,4.27,1.48,5.86.97,1.65,2.56,3.02,4.73,4.21,2.16,1.19,5.18,2.22,8.99,3.19,3.53.91,6.04,1.65,7.46,2.16,1.48.57,2.44,1.08,2.96,1.65.51.51.74,1.31.74,2.33,0,1.53-.62,2.68-1.82,3.53-1.2.85-2.9,1.25-5.06,1.25-2.62,0-4.78-.62-6.49-1.82-1.71-1.25-2.79-2.9-3.3-5.06l-11.16,1.71c.8,4.73,2.9,8.31,6.43,10.87,3.53,2.56,8.08,3.82,13.72,3.82,5.92,0,10.59-1.31,13.89-3.93,3.36-2.62,5.01-6.26,5.01-10.92-.06-2.33-.51-4.33-1.48-6.04h0Z"/>
    </g>
    <g class="cls-1">
      <g class="cls-1">
        <path class="cls-2" d="M605.73,58.33h8.84l11.37,37.4,11.56-37.4h8.84l-13.9,45.49h-12.82l-13.9-45.49Z"/>
      </g>
      <g class="cls-1">
        <path class="cls-2" d="M676.61,78.42c.17,1.18.25,2.7.25,4.55v20.85h-7.52v-4.17c-1.52,1.81-3.18,3.12-4.99,3.92-1.81.8-4.02,1.2-6.63,1.2-2.36,0-4.4-.46-6.13-1.39-1.73-.93-3.03-2.17-3.92-3.73-.88-1.56-1.33-3.3-1.33-5.24,0-2.48.58-4.58,1.74-6.29,1.16-1.71,3.06-3.04,5.72-4.01,1.47-.55,3.29-1.02,5.46-1.42,2.17-.4,5.21-.89,9.13-1.48-.21-1.6-.8-2.77-1.77-3.51-.97-.74-2.46-1.11-4.49-1.11-1.47,0-2.85.34-4.14,1.01-1.29.67-2.18,1.73-2.68,3.16l-7.77-2.46c.88-2.95,2.55-5.27,4.99-6.98s5.64-2.56,9.6-2.56c6.7,0,11.14,2.06,13.33,6.19.59,1.14.97,2.3,1.14,3.47ZM668.34,88.21c-2.87.46-5.01.85-6.44,1.17-1.43.32-2.63.64-3.6.98-1.26.5-2.17,1.06-2.72,1.67-.55.61-.82,1.36-.82,2.24,0,1.18.43,2.1,1.3,2.75.86.65,2.03.98,3.51.98,2.06,0,3.77-.49,5.12-1.48,1.35-.99,2.27-2.01,2.78-3.06.51-1.05.8-2.8.88-5.24Z"/>
        <path class="cls-2" d="M685.71,57.38h8.59v46.43h-8.59v-46.43Z"/>
      </g>
      <g class="cls-1">
        <path class="cls-2" d="M713.64,94.78c1.35,1.3,3.18,1.96,5.5,1.96,1.68,0,3.13-.37,4.33-1.11,1.2-.74,2.12-1.8,2.75-3.19l8.59,2.46c-1.26,3.08-3.28,5.49-6.03,7.23-2.76,1.75-5.8,2.62-9.13,2.62s-6.53-.75-9.22-2.24c-2.7-1.49-4.79-3.58-6.29-6.25-1.5-2.67-2.24-5.7-2.24-9.07,0-3.66.73-6.9,2.18-9.7,1.45-2.8,3.48-4.96,6.1-6.48,2.61-1.52,5.6-2.27,8.97-2.27s6.14.73,8.56,2.18c2.42,1.45,4.29,3.53,5.59,6.22,1.3,2.7,1.96,5.85,1.96,9.48,0,.51-.04,1.35-.13,2.53h-24.01c.34,2.44,1.18,4.32,2.53,5.62ZM731.26,59.4l-2.15,6.19-17.75-6.06,2.08-6.25,17.81,6.13ZM711.36,82.78h15.04c-.29-2.27-1-3.94-2.12-4.99-1.12-1.05-2.71-1.58-4.77-1.58-4.55,0-7.26,2.19-8.15,6.57Z"/>
      </g>
      <g class="cls-1">
        <path class="cls-2" d="M770.77,73.96c1.62,3.52,2.43,7.09,2.43,10.71v19.14h-8.72v-16.11c0-2.86-.43-5.4-1.29-7.61-.86-2.21-2.87-3.32-6.03-3.32-1.98,0-3.69.69-5.12,2.05-1.43,1.37-2.15,3.93-2.15,7.68v17.31h-8.72v-34.11h7.64v3.54c2.7-3.03,6.38-4.55,11.06-4.55,5.64,0,9.28,1.76,10.9,5.27Z"/>
      </g>
      <g class="cls-1">
        <path class="cls-2" d="M786.83,102.42c-2.55-1.56-4.51-3.71-5.88-6.44-1.37-2.74-2.05-5.81-2.05-9.22s.7-6.54,2.12-9.26c1.41-2.72,3.4-4.85,5.97-6.41,2.57-1.56,5.56-2.34,8.97-2.34,4,0,7.37,1.02,10.11,3.06,2.74,2.04,4.49,4.81,5.24,8.31l-8.59,2.27c-.51-1.77-1.38-3.15-2.62-4.14-1.24-.99-2.66-1.48-4.26-1.48-2.61,0-4.57.92-5.88,2.75s-1.96,4.24-1.96,7.23.67,5.46,2.02,7.26c1.35,1.81,3.29,2.72,5.81,2.72,1.85,0,3.29-.42,4.33-1.26,1.03-.84,1.82-2.13,2.37-3.85l8.78,1.83c-.97,3.62-2.8,6.41-5.5,8.37-2.7,1.96-6.02,2.94-9.98,2.94-3.45,0-6.46-.78-9-2.34Z"/>
      </g>
      <g class="cls-1">
        <path class="cls-2" d="M817.31,57.38h8.59v7.58h-8.59v-7.58ZM817.31,69.7h8.59v34.11h-8.59v-34.11Z"/>
        <path class="cls-2" d="M863.74,78.42c.17,1.18.25,2.7.25,4.55v20.85h-7.52v-4.17c-1.52,1.81-3.18,3.12-4.99,3.92-1.81.8-4.02,1.2-6.63,1.2-2.36,0-4.4-.46-6.13-1.39-1.73-.93-3.03-2.17-3.92-3.73-.88-1.56-1.33-3.3-1.33-5.24,0-2.48.58-4.58,1.74-6.29,1.16-1.71,3.06-3.04,5.72-4.01,1.47-.55,3.29-1.02,5.46-1.42,2.17-.4,5.21-.89,9.13-1.48-.21-1.6-.8-2.77-1.77-3.51-.97-.74-2.46-1.11-4.49-1.11-1.47,0-2.85.34-4.14,1.01-1.29.67-2.18,1.73-2.68,3.16l-7.77-2.46c.88-2.95,2.55-5.27,4.99-6.98s5.64-2.56,9.6-2.56c6.7,0,11.14,2.06,13.33,6.19.59,1.14.97,2.3,1.14,3.47ZM855.47,88.21c-2.87.46-5.01.85-6.44,1.17-1.43.32-2.63.64-3.6.98-1.26.5-2.17,1.06-2.72,1.67-.55.61-.82,1.36-.82,2.24,0,1.18.43,2.1,1.3,2.75.86.65,2.03.98,3.51.98,2.06,0,3.77-.49,5.12-1.48,1.35-.99,2.27-2.01,2.78-3.06.51-1.05.8-2.8.88-5.24Z"/>
      </g>
    </g>
  </g>
</svg>